{"title":"Call the Midwife Season 1 Complete DVDRIP x264 Eng Subs","uid":14009215,"size":2518433551,"categoryP":"video","categoryS":"tv_shows","magnet":"?xt=urn:btih:4e847720ac7321a714d72c6afef12726d0567a02&amp;dn=Call+the+Midwife+Season+1+Complete+DVDRIP+x264+Eng+Subs&amp;tr=udp%3A%2F%2Ftracker.leechers-paradise.org%3A6969&amp;tr=udp%3A%2F%2Fzer0day.ch%3A1337&amp;tr=udp%3A%2F%2Fopen.demonii.com%3A1337&amp;tr=udp%3A%2F%2Ftracker.coppersurfer.tk%3A6969&amp;tr=udp%3A%2F%2Fexodus.desync.com%3A6969","seeders":0,"leechers":7,"uploader":"ChasVA","files":7,"time":1458812235,"description":"Format                                   : MPEG-4\r\nFormat profile                           : Base Media / Version 2\r\nCodec ID                                 : mp42 (isom/iso2/avc1/mp41)\r\nFile size                                : 415 MiB\r\nDuration                                 : 58mn 57s\r\nOverall bit rate mode                    : Variable\r\nOverall bit rate                         : 983 Kbps\r\nMovie name                               : Call the Midwife S01E01\r\n\r\nVideo\r\n\r\nID                                       : 1\r\nFormat                                   : AVC\r\nFormat/Info                              : Advanced Video Codec\r\nFormat profile                           :   \r\nFormat settings, CABAC                   : Yes\r\nFormat settings, ReFrames                : 4 frames\r\nCodec ID                                 : avc1\r\nCodec ID/Info                            : Advanced Video Coding\r\nDuration                                 : 58mn 57s\r\nBit rate                                 : 810 Kbps\r\nWidth                                    : 720 pixels\r\nHeight                                   : 472 pixels\r\nDisplay aspect ratio                     : 16:9\r\nFrame rate mode                          : Variable\r\nFrame rate                               : 29.970 (29970/1000) fps\r\nMinimum frame rate                       : 15.152 fps\r\nMaximum frame rate                       : 30.303 fps\r\nColor space                              : YUV\r\nChroma subsampling                       : 4:2:0\r\nBit depth                                : 8 bits\r\nScan type                                : Progressive\r\nBits/(Pixel*Frame)                       : 0.079\r\nStream size                              : 341 MiB (82%)\r\n\r\nAudio\r\n\r\nID                                       : 2\r\nFormat                                   : AAC\r\nFormat/Info                              : Advanced Audio Codec\r\nFormat profile                           : LC\r\nCodec ID                                 : 40\r\nDuration                                 : 58mn 57s\r\nBit rate mode                            : Variable\r\nBit rate                                 : 160 Kbps\r\nChannel(s)                               : 2 channels\r\nChannel positions                        : Front: L R\r\nSampling rate                            : 48.0 KHz\r\nFrame rate                               : 46.875 fps (1024 spf)\r\nCompression mode                         : Lossy\r\nStream size                              : 67.5 MiB (16%)\r\nTitle                                    : Stereo / Stereo\r\nLanguage                                 : English\r\nDefault                                  : Yes\r\nAlternate group                          : 1\r\n\r\nText\r\n\r\nID                                       : 3\r\nFormat                                   : mp4s\r\nCodec ID                                 : E0\r\nDuration                                 : 58mn 25s\r\nBit rate mode                            : Variable\r\nBit rate                                 : 5 400 bps\r\nStream size                              : 2.26 MiB (1%)\r\nLanguage                                 : English\r\nDefault                                  : Yes\r\nForced                                   : No\r\nAlternate group                          : 3","torrent":{"xt":"urn:btih:4e847720ac7321a714d72c6afef12726d0567a02","amp;dn":"Call+the+Midwife+Season+1+Complete+DVDRIP+x264+Eng+Subs","amp;tr":["udp%3A%2F%2Ftracker.leechers-paradise.org%3A6969","udp%3A%2F%2Fzer0day.ch%3A1337","udp%3A%2F%2Fopen.demonii.com%3A1337","udp%3A%2F%2Ftracker.coppersurfer.tk%3A6969","udp%3A%2F%2Fexodus.desync.com%3A6969"],"infoHash":"4e847720ac7321a714d72c6afef12726d0567a02","infoHashBuffer":{"type":"Buffer","data":[78,132,119,32,172,115,33,167,20,215,44,106,254,241,39,38,208,86,122,2]},"announce":[],"urlList":[]}}